<?xml version="1.0" standalone="no"?>
<!DOCTYPE svg PUBLIC "-//W3C//DTD SVG 20010904//EN"
 "http://www.w3.org/TR/2001/REC-SVG-20010904/DTD/svg10.dtd">
<svg version="1.0" xmlns="http://www.w3.org/2000/svg"
 width="300.000000pt" height="130.000000pt" viewBox="0 0 300.000000 130.000000"
 preserveAspectRatio="xMidYMid meet">

<g transform="translate(0.000000,130.000000) scale(0.100000,-0.100000)"
fill="#960907" stroke="none">
<path d="M0 650 l0 -650 1500 0 1500 0 0 650 0 650 -1500 0 -1500 0 0 -650z
m1190 529 c953 -15 1623 -28 1626 -32 10 -9 54 -1020 46 -1028 -6 -5 -2684 29
-2688 34 -3 5 -55 940 -54 990 l0 59 218 -6 c119 -4 503 -11 852 -17z"/>
<path d="M1508 1055 c-653 -11 -1189 -23 -1191 -26 -4 -4 -13 -141 -37 -544
-6 -88 -12 -182 -14 -209 l-3 -49 441 6 c242 4 787 12 1211 18 424 6 771 12
771 13 1 0 9 145 18 321 9 176 19 359 22 408 6 81 5 87 -12 86 -11 -1 -553
-12 -1206 -24z m-808 -186 c117 -19 170 -70 170 -165 0 -45 -5 -59 -30 -87
-16 -19 -45 -40 -62 -47 -18 -8 -35 -15 -36 -16 -2 -1 30 -51 72 -110 41 -59
73 -111 70 -115 -3 -5 -23 -9 -44 -9 -44 0 -53 9 -140 138 l-55 82 -82 0 -82
0 -3 -107 -3 -108 -45 0 -45 0 -3 269 c-2 209 1 271 10 278 19 11 232 10 308
-3z m388 -1 c8 -8 12 -46 12 -105 0 -51 2 -93 5 -93 3 0 62 45 131 100 127
101 152 114 195 108 48 -7 27 -34 -116 -148 -80 -63 -145 -118 -145 -122 0 -3
69 -63 153 -133 83 -70 153 -133 155 -141 3 -11 -9 -14 -45 -14 -47 0 -53 3
-191 115 l-141 115 -3 -112 -3 -113 -45 0 -45 0 -3 269 c-2 209 1 271 10 278
19 12 62 10 76 -4z m592 -385 c6 -32 13 -62 14 -68 2 -5 11 9 21 33 12 29 23
42 36 42 14 0 26 -13 38 -42 l18 -43 13 63 c13 62 26 79 54 69 11 -4 9 -23 -9
-104 -20 -90 -23 -98 -47 -101 -21 -3 -27 3 -42 42 -10 26 -21 46 -25 46 -4 0
-14 -19 -22 -42 -12 -34 -21 -44 -41 -46 -25 -3 -27 1 -47 88 -27 116 -26 120
3 120 22 0 26 -6 36 -57z m510 37 c0 -18 -7 -20 -65 -20 -63 0 -65 -1 -65 -25
0 -24 3 -25 60 -25 46 0 60 -3 60 -15 0 -10 -15 -15 -57 -17 -54 -3 -58 -5
-58 -28 0 -24 3 -25 63 -28 46 -2 62 -7 62 -17 0 -12 -18 -15 -90 -15 l-90 0
0 105 0 105 90 0 c83 0 90 -1 90 -20z m295 8 c33 -15 43 -53 21 -77 -15 -16
-15 -19 -1 -24 9 -4 15 -19 15 -36 0 -46 -30 -61 -122 -61 l-78 0 0 105 0 105
70 0 c38 0 81 -5 95 -12z"/>
<path d="M480 710 l0 -102 114 4 c97 2 119 6 142 24 34 25 46 65 32 105 -16
46 -58 62 -180 67 l-108 5 0 -103z"/>
<path d="M2374 501 c-2 -2 -4 -15 -4 -28 0 -19 5 -23 29 -23 42 0 61 9 61 30
0 14 -10 19 -41 22 -22 2 -42 2 -45 -1z"/>
<path d="M2370 390 c0 -28 2 -30 39 -30 46 0 70 22 51 45 -7 9 -29 15 -51 15
-37 0 -39 -2 -39 -30z"/>
</g>
</svg>
